<svg width="15" height="15" viewBox="0 0 15 15" fill="none" xmlns="http://www.w3.org/2000/svg">
<path d="M2.625 6.75L6.75 0L10.875 6.75H2.625ZM10.875 15C9.9375 15 9.14062 14.6719 8.48438 14.0156C7.82812 13.3594 7.5 12.5625 7.5 11.625C7.5 10.6875 7.82812 9.89062 8.48438 9.23437C9.14062 8.57812 9.9375 8.25 10.875 8.25C11.8125 8.25 12.6094 8.57812 13.2656 9.23437C13.9219 9.89062 14.25 10.6875 14.25 11.625C14.25 12.5625 13.9219 13.3594 13.2656 14.0156C12.6094 14.6719 11.8125 15 10.875 15ZM0 14.625V8.625H6V14.625H0Z" fill="white"/>
</svg>
