<svg width="225" height="40" viewBox="0 0 225 40" fill="none" xmlns="http://www.w3.org/2000/svg">
<path d="M74.8555 40.0001C72.2338 40.0001 70.0064 39.0868 68.1721 37.261C66.3371 35.4351 65.4199 33.2456 65.4199 30.6931V9.40162C65.4199 6.80774 66.3424 4.60218 68.1878 2.78658C70.0325 0.97121 72.2553 0.0622444 74.8555 0.0622444C77.476 0.0622444 79.6988 0.975628 81.5233 2.8017C83.3472 4.62846 84.2592 6.82843 84.2592 9.40162V13.853H78.0946V9.27652C78.0946 8.34338 77.759 7.54463 77.0882 6.88029C76.4174 6.21548 75.6103 5.88412 74.6665 5.88412C73.7233 5.88412 72.921 6.21548 72.2604 6.88029C71.6001 7.54463 71.2696 8.34338 71.2696 9.27652V30.6312C71.2696 31.5641 71.6001 32.3583 72.2604 33.0126C72.921 33.6653 73.7233 33.9927 74.6665 33.9927C75.6103 33.9927 76.4174 33.6665 77.0882 33.0146C77.759 32.3629 78.0946 31.5709 78.0946 30.6406V22.9733H74.7923V17.0582H84.2592V30.6931C84.2592 33.2868 83.3362 35.4868 81.4915 37.2919C79.646 39.0972 77.4343 40.0001 74.8555 40.0001Z" fill="#B3DB18"/>
<path d="M99.1038 9.43214L96.9023 24.8092H101.306L99.1038 9.43214ZM95.9811 30.5369L94.5369 39.5021H88.3474L95.047 0.498295H103.224L109.828 39.5021H103.579L102.188 30.5369H95.9811Z" fill="#B3DB18"/>
<path d="M121.503 0.467125L129.391 26.7015V0.467125H135.335V39.5021H128.951L120.773 14.506V39.5021H114.829V0.467125H121.503Z" fill="#B3DB18"/>
<path d="M152.507 30.6621C152.507 33.2558 151.59 35.4511 149.755 37.2449C147.92 39.0409 145.703 39.9382 143.103 39.9382C141.594 39.9382 140.367 39.7823 139.423 39.4711L140.273 33.9927C140.944 34.1166 141.52 34.1796 142.003 34.1796C142.296 34.2001 142.715 34.1899 143.261 34.1485C144.225 34.0854 145.038 33.7435 145.698 33.1213C146.358 32.4984 146.689 31.7202 146.689 30.786V0.560303H152.507V30.6621Z" fill="#B3DB18"/>
<path d="M167.351 9.43214L165.15 24.8092H169.553L167.351 9.43214ZM164.229 30.5369L162.785 39.5021H156.595L163.295 0.498295H171.472L178.076 39.5021H171.826L170.435 30.5369H164.229Z" fill="#B3DB18"/>
<path d="M191.6 40.0001C188.978 40.0001 186.751 39.0868 184.917 37.261C183.082 35.4351 182.165 33.2456 182.165 30.6931V9.40162C182.165 6.80774 183.087 4.60218 184.932 2.78658C186.777 0.97121 189 0.0622444 191.6 0.0622444C194.221 0.0622444 196.444 0.975628 198.268 2.8017C200.092 4.62846 201.004 6.82843 201.004 9.40162V13.853H194.839V9.27652C194.839 8.34338 194.504 7.54463 193.833 6.88029C193.162 6.21548 192.355 5.88412 191.411 5.88412C190.468 5.88412 189.666 6.21548 189.005 6.88029C188.345 7.54463 188.014 8.34338 188.014 9.27652V30.6312C188.014 31.5641 188.345 32.3583 189.005 33.0126C189.666 33.6653 190.468 33.9927 191.411 33.9927C192.355 33.9927 193.162 33.6665 193.833 33.0146C194.504 32.3629 194.839 31.5709 194.839 30.6406V22.9733H191.537V17.0582H201.004V30.6931C201.004 33.2868 200.081 35.4868 198.236 37.2919C196.391 39.0972 194.179 40.0001 191.6 40.0001Z" fill="#6B2B96"/>
<path d="M218.71 9.21438C218.71 8.28007 218.38 7.48714 217.719 6.83303C217.058 6.17892 216.257 5.85291 215.313 5.85291C214.37 5.85291 213.562 6.17892 212.891 6.83303C212.22 7.48714 211.885 8.28007 211.885 9.21438V30.5679C211.885 31.5022 212.22 32.2964 212.891 32.9493C213.562 33.6036 214.37 33.9306 215.313 33.9306C216.257 33.9306 217.058 33.6036 217.719 32.9493C218.38 32.2964 218.71 31.5022 218.71 30.5679V9.21438ZM215.471 0.000106812C218.091 0.000106812 220.319 0.913719 222.154 2.73956C223.988 4.56655 224.906 6.76653 224.906 9.33949V30.6311C224.906 33.2249 223.983 35.4293 222.138 37.2448C220.292 39.0614 218.07 39.9694 215.471 39.9694C212.849 39.9694 210.627 39.0558 208.803 37.2298C206.978 35.4041 206.066 33.2041 206.066 30.6311V9.33949C206.066 6.74467 206.989 4.54004 208.834 2.72467C210.679 0.907906 212.891 0.000106812 215.471 0.000106812Z" fill="#6B2B96"/>
<path d="M19.7963 10.2218V10.2273C19.3941 10.2291 18.9918 10.2304 18.5896 10.2328C18.2246 10.2351 17.8909 10.4378 17.7221 10.7581L17.6482 10.8979C17.4799 11.2172 17.5029 11.6023 17.7082 11.8996L17.7152 11.9098C17.858 12.1165 18.075 12.2559 18.3173 12.3095C18.3818 12.3238 18.4472 12.3354 18.5146 12.3366C18.8441 12.3422 19.1734 12.3465 19.5029 12.3506L19.5033 12.3511H19.546H21.59C21.59 12.3511 21.6299 12.3568 21.6926 12.3743C21.8461 12.4171 22.139 12.5336 22.3416 12.8255C22.3474 12.8339 22.3522 12.8443 22.3578 12.853L22.4314 12.9925C22.4498 13.0275 22.4651 13.0636 22.4789 13.1C22.4828 13.1103 22.4865 13.1204 22.4899 13.1307C22.5885 13.4181 22.5477 13.7379 22.3714 13.9933L22.3642 14.0038C22.1835 14.2656 21.8859 14.4251 21.5657 14.4306C20.6973 14.4454 19.8287 14.4537 18.96 14.46C19.4133 15.1969 19.9052 15.9351 20.4368 16.6758C20.8344 16.6743 21.2319 16.6731 21.6294 16.6716C22.636 16.6771 23.6424 16.6883 24.6486 16.7088C24.911 16.7293 25.4732 16.8374 25.535 17.3801C25.5351 17.3848 25.5356 17.3894 25.5355 17.3941C25.5335 17.5224 25.5336 17.6508 25.5327 17.7791C25.5077 18.1169 25.3589 18.7884 24.5761 18.8336L24.5771 18.8348C23.8233 18.8449 23.0694 18.8521 22.3155 18.8581C22.2476 18.8586 22.1795 18.8586 22.1116 18.8591C22.8411 19.7524 23.6283 20.6514 24.4751 21.5582C25.2565 22.3951 26.0858 23.2383 26.9944 24.1207C27.1695 24.2907 27.3465 24.4618 27.5277 24.6349C27.6702 24.7661 27.8121 24.8956 27.9534 25.024C28.1583 25.2106 28.3617 25.3937 28.5642 25.5749C29.2138 26.1563 29.8505 26.7106 30.4766 27.2396C30.5967 27.3411 30.7163 27.4415 30.8355 27.5412C32.0507 28.556 33.228 29.4776 34.3857 30.32C35.5014 31.1161 37.0814 32.1434 37.7259 32.559C39.4041 32.1453 41.0466 31.5841 42.6331 30.9068C43.5064 30.523 44.3655 30.0986 45.2048 29.6385C45.3339 29.5677 45.4623 29.4957 45.5904 29.423C46.85 28.7072 48.0537 27.8979 49.1625 26.9743C49.7453 26.489 50.3052 25.9762 50.8298 25.426C51.0186 25.3349 50.809 25.2186 50.7095 25.2355C49.8205 25.1321 48.9237 25.0891 48.0284 25.1104C47.7466 25.1172 47.4649 25.1294 47.1837 25.1493C46.9716 25.162 46.7597 25.1794 46.5478 25.1971C44.5641 25.3627 42.5988 25.7414 40.6973 26.3238C40.6774 26.366 40.6375 26.4514 40.6176 26.4936C40.5892 26.4674 40.5323 26.4157 40.5039 26.3895C39.993 26.5343 39.49 26.7026 38.9909 26.8817C37.7986 27.3094 36.6367 27.8206 35.502 28.3794C36.678 27.2237 37.7669 25.9833 38.7779 24.6836C39.5824 23.6493 40.3316 22.5744 41.0207 21.4617C41.3205 20.9775 41.6077 20.4863 41.8844 19.9888C42.6359 18.6375 43.3111 17.2446 43.8805 15.8078L43.8829 15.8103L43.9151 15.7218C43.9461 15.643 43.9793 15.565 44.0097 15.4859C44.0079 15.4828 44.006 15.4797 44.0041 15.4766L44.065 15.3093C44.0678 15.3115 44.0703 15.3139 44.0732 15.316C44.1188 15.1822 44.1637 15.048 44.2087 14.9137L44.2182 14.8874L44.2177 14.8866C44.7098 13.4146 45.1463 11.9168 45.3208 10.3727C45.3208 10.3727 45.2166 10.4212 45.0063 10.5358C44.7606 10.6639 44.5169 10.7953 44.2768 10.9325C43.8501 11.1762 43.4321 11.4337 43.0226 11.7043C43.0226 11.7043 43.0055 11.7368 42.9714 11.7995C41.48 12.8078 39.2621 14.4506 36.2719 17.0282C35.0386 18.0914 33.6748 19.3128 32.1756 20.7152C32.1727 20.7179 32.1697 20.7206 32.1668 20.7233C32.1696 20.7187 32.1731 20.7131 32.1761 20.7085C32.3563 17.9145 32.2499 15.0989 31.8398 12.328C31.6641 11.1404 31.4383 9.96015 31.1458 8.79471C30.6111 6.72034 29.9256 4.66573 28.8905 2.77998C28.1898 4.01929 27.7196 5.36473 27.238 6.69688C26.8655 7.85341 26.5677 9.03044 26.3228 10.2184C24.1473 10.2154 21.9718 10.2148 19.7963 10.2218Z" fill="#B3DB18"/>
<path d="M51.842 31.3049C51.4094 30.1679 51.0393 28.9806 50.2574 28.0208C50.72 29.9316 51.4214 31.8897 51.0213 33.8801C50.8125 35.2652 49.7262 36.5796 48.2431 36.6739C45.0648 37.0461 42.0924 35.5813 39.2991 34.273C38.7407 33.9654 38.1902 33.6452 37.6464 33.3149C37.6464 33.3149 37.3046 33.0969 36.802 32.7694C36.0266 32.2643 34.8673 31.4982 33.9808 30.8656C32.7366 29.9604 31.5274 29.0064 30.3468 28.0188C30.2401 27.9296 30.1345 27.8392 30.0282 27.7494C29.3633 27.1872 28.707 26.6153 28.0592 26.0348C27.855 25.8518 27.6519 25.6677 27.4493 25.4832C27.3187 25.3643 27.1874 25.2461 27.0574 25.1266C26.8851 24.9619 26.7139 24.7951 26.5425 24.6286C25.6688 23.7806 24.808 22.9121 23.973 22.0178C23.0224 20.9998 22.1048 19.9497 21.2368 18.8635C20.6676 18.1513 20.1203 17.4234 19.599 16.6788C19.0937 15.957 18.6131 15.2194 18.1616 14.4649C17.2225 12.8955 16.4089 11.2532 15.7619 9.52724C15.3262 7.93537 14.6697 6.33173 14.801 4.65727C14.998 2.97095 16.5199 1.68626 18.1912 1.53851C21.0441 1.26091 23.7329 2.51612 26.2457 3.69153C24.4313 2.22377 22.2169 1.25803 19.9996 0.531429C18.03 -0.130104 15.6754 -0.336803 13.8699 0.876984C12.4643 1.7187 11.7003 3.32531 11.6734 4.92302C11.7299 7.63314 12.8737 10.1526 13.9861 12.5809C13.9861 12.5809 14.3611 13.2925 15.0998 14.4901C14.8325 14.489 14.5653 14.4889 14.2981 14.4899C13.8173 14.4915 13.3366 14.4963 12.8558 14.5069C12.4973 14.5148 12.1683 14.7075 11.9854 15.0126L11.9536 15.0658C11.7691 15.3734 11.7596 15.7537 11.9284 16.07L11.9349 16.082C12.1111 16.4123 12.4547 16.6237 12.8319 16.6324C13.7841 16.6542 14.7364 16.6652 15.6887 16.6715C15.9641 16.6732 16.2396 16.6748 16.5151 16.6758C16.9711 17.3493 17.4879 18.0855 18.0647 18.8696C17.7852 18.869 17.5058 18.8683 17.2264 18.8676C17.2237 18.8676 17.2211 18.8676 17.2185 18.8676C13.3002 18.8579 9.38209 18.8505 5.46595 18.9088C4.87085 18.9387 4.64128 19.3441 4.54394 19.8125C4.4488 20.2706 4.66353 20.7387 5.06665 20.9827L5.07627 20.9886C5.25472 21.0967 5.45923 21.153 5.66847 21.1523C5.89059 21.1516 6.11272 21.1517 6.33485 21.1509C9.96539 21.1396 13.5958 21.1383 17.2264 21.1505C17.8005 21.1524 18.3746 21.1533 18.9487 21.1547C19.2397 21.1554 19.5306 21.1561 19.8214 21.1578C19.8498 21.158 19.8781 21.1579 19.9063 21.158C20.2719 21.1603 20.6065 21.3627 20.7756 21.6833L20.8496 21.8237C20.9624 22.0377 20.9872 22.281 20.9306 22.5078C20.9028 22.6192 20.8571 22.727 20.7894 22.825L20.7824 22.8351C20.7135 22.9349 20.6273 23.0195 20.5296 23.0867C20.3709 23.1958 20.1812 23.2584 19.983 23.2618C19.0642 23.2775 18.1453 23.2854 17.2264 23.2925C13.5962 23.3207 9.9652 23.295 6.33485 23.2927C4.58906 23.2917 2.84336 23.296 1.09808 23.3167C0.618859 23.2775 0.370403 23.6522 0.139356 24.0218C-0.0347418 24.3003 -0.0467382 24.6492 0.109134 24.9382L0.114991 24.9491C0.272107 25.2404 0.574978 25.4274 0.908544 25.4376C4.54302 25.5486 8.18172 25.553 11.8214 25.5399C13.623 25.5335 15.4247 25.5254 17.2264 25.521V25.5315C18.0513 25.5382 18.8763 25.5459 19.7009 25.56C19.7033 25.5628 19.7058 25.5655 19.7082 25.5685C20.7216 25.5708 21.735 25.5723 22.7483 25.5764C22.9938 25.5774 23.2393 25.5777 23.4847 25.5792C23.561 25.5797 23.6355 25.5908 23.708 25.608C23.9822 25.673 24.2201 25.8508 24.3538 26.1044L24.4278 26.2448C24.4582 26.3023 24.4801 26.3623 24.498 26.4232C24.5797 26.7002 24.536 27.0024 24.3677 27.246L24.3665 27.2477L24.3607 27.2562C24.1798 27.5179 23.8817 27.6775 23.5613 27.683C23.0539 27.6916 22.5466 27.6976 22.0393 27.7033H20.0478L20.0477 27.707C19.4585 27.7129 18.8691 27.7186 18.2797 27.7217C17.477 27.745 16.6738 27.7566 15.8702 27.7639C15.8027 27.7636 15.7352 27.7637 15.6676 27.7633C14.7149 27.7584 13.762 27.7522 12.8093 27.7545C11.8334 27.7568 10.8576 27.7648 9.8822 27.7889C8.80625 27.5989 8.4508 29.0229 9.03391 29.6491L9.03346 29.6491C9.03428 29.65 9.03509 29.6506 9.03591 29.6514C9.08468 29.6974 9.1319 29.7372 9.17803 29.7732C9.57997 30.0872 9.87221 30.0436 9.87221 30.0436H15.6676C16.5797 30.0466 17.4916 30.0457 18.4037 30.0514C18.7691 30.0536 19.1036 30.256 19.2727 30.5767L19.3468 30.717C19.515 31.0362 19.4919 31.421 19.2866 31.7182L19.2796 31.7284C19.1531 31.9115 18.9686 32.043 18.7597 32.1084C18.6701 32.1364 18.5765 32.1535 18.4802 32.1551C17.5427 32.1712 16.6052 32.1794 15.6676 32.1865V32.196C13.6399 32.1935 11.612 32.1873 9.58442 32.1861H5.57048C5.10642 32.333 4.80638 32.7951 4.77868 33.2742H4.7785C4.7162 34.4292 5.87543 34.4401 5.87543 34.4401H7.47056H8.42365H12.5756H15.4683L15.4883 34.4444H17.0708H22.5783H22.6737C22.6759 34.443 22.6781 34.4416 22.6804 34.4401H22.8434C22.2607 34.7821 21.697 35.1559 21.1605 35.5659C20.4034 36.1538 19.6857 36.8043 19.0631 37.533C19.0262 37.5761 18.9906 37.6204 18.9543 37.664C18.7023 37.968 18.4649 38.2836 18.252 38.6168C20.0921 38.538 21.8782 37.9583 23.5239 37.1627C23.8957 36.9799 24.26 36.782 24.6174 36.5724C24.9625 36.3699 25.2981 36.1524 25.6269 35.925C26.3745 35.4078 27.0792 34.8305 27.7181 34.1849C27.9702 33.9034 28.2035 33.605 28.485 33.3509C28.4686 34.2118 28.4804 35.0803 28.4293 35.9426C28.3893 36.6157 28.312 37.2851 28.1466 37.9433C28.6508 37.9386 29.1553 37.9339 29.6606 37.9442C29.4948 37.2852 29.3995 36.6165 29.3368 35.9437C29.2515 35.0275 29.2285 34.1038 29.1875 33.1857C30.0285 34.2579 31.053 35.1727 32.1788 35.9449C32.8233 36.3868 33.5005 36.7829 34.197 37.1327C35.8598 37.9451 37.6668 38.5343 39.5305 38.6178C39.342 38.318 39.1322 38.0331 38.9095 37.7586C38.4602 37.2047 37.9518 36.6973 37.4195 36.2214C38.3709 36.735 39.335 37.2253 40.3132 37.6873C40.5221 37.786 40.7303 37.8862 40.9404 37.9823C43.2234 38.8713 45.5632 39.8636 48.061 39.8518C49.947 39.8458 51.8391 38.6498 52.3971 36.8275C52.994 35.0024 52.4777 33.0503 51.842 31.3049Z" fill="#6B2B96"/>
</svg>
